<?xml version="1.0" encoding="iso-8859-1"?>
<!-- Generator: Adobe Illustrator 23.0.1, SVG Export Plug-In . SVG Version: 6.00 Build 0)  -->
<svg xmlns="http://www.w3.org/2000/svg" xmlns:xlink="http://www.w3.org/1999/xlink" version="1.1" id="Layer_1" x="0px" y="0px" viewBox="0 0 64 64" style="enable-background:new 0 0 64 64;" xml:space="preserve" width="64px" height="64px">
<radialGradient id="SVGID_1__118959" cx="32" cy="32.5" r="30.751" gradientUnits="userSpaceOnUse" spreadMethod="reflect">
	<stop offset="0" style="stop-color:#C5F1FF"/>
	<stop offset="0.3505" style="stop-color:#CDF3FF"/>
	<stop offset="0.9073" style="stop-color:#E4FAFF"/>
	<stop offset="1" style="stop-color:#E9FBFF"/>
</radialGradient>
<path style="fill:url(#SVGID_1__118959);" d="M60.357,47H57c-1.105,0-2-0.895-2-2c0-1.105,0.895-2,2-2h0.412  c1.139,0,2.202-0.721,2.497-1.821C60.355,39.516,59.096,38,57.5,38H42V27h14c2.335,0,4.22-2.028,3.979-4.41  c-0.21-2.075-2.082-3.59-4.168-3.59H46c-1.105,0-2-0.895-2-2c0-1.105,0.895-2,2-2h6.357c1.308,0,2.499-0.941,2.63-2.242  C55.137,11.261,53.966,10,52.5,10h-8C43.672,10,43,9.328,43,8.5S43.672,7,44.5,7h3.857c1.308,0,2.499-0.941,2.63-2.242  C51.137,3.261,49.966,2,48.5,2L15.643,2c-1.308,0-2.499,0.941-2.63,2.242C12.863,5.739,14.034,7,15.5,7H19c1.105,0,2,0.895,2,2  c0,1.105-0.895,2-2,2H6.189c-2.086,0-3.958,1.514-4.168,3.59C1.78,16.972,3.665,19,6,19h2.5c1.933,0,3.5,1.567,3.5,3.5  c0,1.933-1.567,3.5-3.5,3.5H5.189c-2.086,0-3.958,1.514-4.168,3.59C0.78,31.972,2.665,34,5,34h17v12H7.588  c-1.139,0-2.202,0.721-2.497,1.821C4.645,49.484,5.904,51,7.5,51H9c1.105,0,2,0.895,2,2c0,1.105-0.895,2-2,2H6.189  c-2.086,0-3.958,1.514-4.168,3.59C1.78,60.972,3.665,63,6,63h48.811c2.086,0,3.958-1.514,4.168-3.59C59.22,57.028,57.335,55,55,55  h-0.5c-0.828,0-1.5-0.672-1.5-1.5s0.672-1.5,1.5-1.5h6c1.466,0,2.637-1.261,2.487-2.758C62.857,47.941,61.665,47,60.357,47z"/>
<radialGradient id="SVGID_2__118959" cx="32" cy="32.5" r="30.751" gradientUnits="userSpaceOnUse" spreadMethod="reflect">
	<stop offset="0" style="stop-color:#B8EFFF"/>
	<stop offset="0.6425" style="stop-color:#D4F6FF"/>
	<stop offset="1" style="stop-color:#E5FAFF"/>
</radialGradient>
<path style="fill:url(#SVGID_2__118959);" d="M60.357,47H57c-1.105,0-2-0.895-2-2c0-1.105,0.895-2,2-2h0.412  c1.139,0,2.202-0.721,2.497-1.821C60.355,39.516,59.096,38,57.5,38H42V27h14c2.335,0,4.22-2.028,3.979-4.41  c-0.21-2.075-2.082-3.59-4.168-3.59H46c-1.105,0-2-0.895-2-2c0-1.105,0.895-2,2-2h6.357c1.308,0,2.499-0.941,2.63-2.242  C55.137,11.261,53.966,10,52.5,10h-8C43.672,10,43,9.328,43,8.5S43.672,7,44.5,7h3.857c1.308,0,2.499-0.941,2.63-2.242  C51.137,3.261,49.966,2,48.5,2L15.643,2c-1.308,0-2.499,0.941-2.63,2.242C12.863,5.739,14.034,7,15.5,7H19c1.105,0,2,0.895,2,2  c0,1.105-0.895,2-2,2H6.189c-2.086,0-3.958,1.514-4.168,3.59C1.78,16.972,3.665,19,6,19h2.5c1.933,0,3.5,1.567,3.5,3.5  c0,1.933-1.567,3.5-3.5,3.5H5.189c-2.086,0-3.958,1.514-4.168,3.59C0.78,31.972,2.665,34,5,34h17v12H7.588  c-1.139,0-2.202,0.721-2.497,1.821C4.645,49.484,5.904,51,7.5,51H9c1.105,0,2,0.895,2,2c0,1.105-0.895,2-2,2H6.189  c-2.086,0-3.958,1.514-4.168,3.59C1.78,60.972,3.665,63,6,63h48.811c2.086,0,3.958-1.514,4.168-3.59C59.22,57.028,57.335,55,55,55  h-0.5c-0.828,0-1.5-0.672-1.5-1.5s0.672-1.5,1.5-1.5h6c1.466,0,2.637-1.261,2.487-2.758C62.857,47.941,61.665,47,60.357,47z"/>
<linearGradient id="SVGID_3__118959" gradientUnits="userSpaceOnUse" x1="32" y1="59.0753" x2="32" y2="15.0753" spreadMethod="reflect">
	<stop offset="0" style="stop-color:#FFC050"/>
	<stop offset="0.0036" style="stop-color:#FFC050"/>
	<stop offset="0.6414" style="stop-color:#FFBE75"/>
	<stop offset="1" style="stop-color:#FFBD85"/>
	<stop offset="1" style="stop-color:#FFBD85"/>
</linearGradient>
<path style="fill:url(#SVGID_3__118959);" d="M50,12H14c-2.209,0-4,1.791-4,4v36c0,2.209,1.791,4,4,4h36c2.209,0,4-1.791,4-4V16  C54,13.791,52.209,12,50,12z"/>
<linearGradient id="SVGID_4__118959" gradientUnits="userSpaceOnUse" x1="21" y1="64.0389" x2="21" y2="18.2827" spreadMethod="reflect">
	<stop offset="0" style="stop-color:#FFC96A"/>
	<stop offset="0.0036" style="stop-color:#FFC96A"/>
	<stop offset="0.5775" style="stop-color:#FFC887"/>
	<stop offset="1" style="stop-color:#FFC797"/>
	<stop offset="1" style="stop-color:#FFC797"/>
</linearGradient>
<path style="fill:url(#SVGID_4__118959);" d="M32,14.5L32,14.5c0-1.381-1.119-2.5-2.5-2.5H14c-2.209,0-4,1.791-4,4v25h10  c1.657,0,3-1.343,3-3v0c0-1.657-1.343-3-3-3h-1c-1.657,0-3-1.343-3-3v0c0-1.657,1.343-3,3-3h4c1.657,0,3-1.343,3-3v0  c0-1.657-1.343-3-3-3h-3c-1.657,0-3-1.343-3-3v0c0-1.657,1.343-3,3-3h9.5C30.881,17,32,15.881,32,14.5z"/>
<linearGradient id="SVGID_5__118959" gradientUnits="userSpaceOnUse" x1="43.5" y1="68.9936" x2="43.5" y2="51.9936" spreadMethod="reflect">
	<stop offset="1.082549e-07" style="stop-color:#FF8B67"/>
	<stop offset="0.847" style="stop-color:#FFA76A"/>
	<stop offset="1" style="stop-color:#FFAD6B"/>
</linearGradient>
<path style="fill:url(#SVGID_5__118959);" d="M54,52V39c-3.083,0-10.118,0-11.872,0c-1.451,0-2.786,0.972-3.068,2.395  C38.681,43.307,40.152,45,42,45h0.5c1.381,0,2.5,1.119,2.5,2.5c0,1.381-1.119,2.5-2.5,2.5h-6.369c-1.451,0-2.789,0.972-3.071,2.395  C32.681,54.307,34.152,56,36,56h14C52.209,56,54,54.209,54,52z"/>
<linearGradient id="SVGID_6__118959" gradientUnits="userSpaceOnUse" x1="47" y1="6" x2="47" y2="32" spreadMethod="reflect">
	<stop offset="0" style="stop-color:#A4A4A4"/>
	<stop offset="0.6301" style="stop-color:#7F7F7F"/>
	<stop offset="1" style="stop-color:#6F6F6F"/>
	<stop offset="1" style="stop-color:#6F6F6F"/>
</linearGradient>
<path style="fill:url(#SVGID_6__118959);" d="M58,6H43.985c-1.765,0-2.648,2.133-1.401,3.381l4.517,4.517L35.036,25.964  c-1.381,1.381-1.381,3.619,0,5v0c1.381,1.381,3.619,1.381,5,0l12.066-12.066l4.517,4.517C57.867,24.664,60,23.78,60,22.015V8  C60,6.895,59.105,6,58,6z"/>
</svg>
